<?xml version="1.0" encoding="UTF-8" standalone="no"?>
<!-- Created with Inkscape (http://www.inkscape.org/) -->

<svg
   xmlns:dc="http://purl.org/dc/elements/1.1/"
   xmlns:cc="http://creativecommons.org/ns#"
   xmlns:rdf="http://www.w3.org/1999/02/22-rdf-syntax-ns#"
   xmlns:svg="http://www.w3.org/2000/svg"
   xmlns="http://www.w3.org/2000/svg"
   xmlns:sodipodi="http://sodipodi.sourceforge.net/DTD/sodipodi-0.dtd"
   xmlns:inkscape="http://www.inkscape.org/namespaces/inkscape"
   width="151mm"
   height="151mm"
   viewBox="0 0 151 151"
   version="1.1"
   id="svg8"
   inkscape:version="0.92.3 (2405546, 2018-03-11)"
   sodipodi:docname="windows.svg">
  <defs
     id="defs2" />
  <sodipodi:namedview
     id="base"
     pagecolor="#ffffff"
     bordercolor="#666666"
     borderopacity="1.0"
     inkscape:pageopacity="0.0"
     inkscape:pageshadow="2"
     inkscape:zoom="0.7"
     inkscape:cx="45.141809"
     inkscape:cy="325.92194"
     inkscape:document-units="mm"
     inkscape:current-layer="layer1"
     showgrid="false"
     inkscape:window-width="1366"
     inkscape:window-height="703"
     inkscape:window-x="0"
     inkscape:window-y="0"
     inkscape:window-maximized="1" />
  <metadata
     id="metadata5">
    <rdf:RDF>
      <cc:Work
         rdf:about="">
        <dc:format>image/svg+xml</dc:format>
        <dc:type
           rdf:resource="http://purl.org/dc/dcmitype/StillImage" />
        <dc:title></dc:title>
      </cc:Work>
    </rdf:RDF>
  </metadata>
  <g
     inkscape:label="Layer 1"
     inkscape:groupmode="layer"
     id="layer1"
     transform="translate(0,-146)">
    <path
       style="fill:#000000;stroke-width:0.26458335"
       d=""
       id="path72"
       inkscape:connector-curvature="0" />
    <path
       style="fill:#0177d6;fill-opacity:1;stroke-width:0.46454021"
       d="m 115.37955,269.41234 c -3.9602,-0.58881 -12.74002,-1.82575 -19.51069,-2.74878 -16.032542,-2.18567 -24.224176,-3.40442 -24.458708,-3.63895 -0.10394,-0.10394 -0.193025,-8.94528 -0.197955,-19.64742 l -0.009,-19.45844 26.501293,-0.11992 26.50128,-0.11992 v 23.4631 c 0,22.05936 -0.0486,23.45942 -0.81295,23.40201 -0.44712,-0.0335 -4.05311,-0.54283 -8.01331,-1.13163 z m -55.977098,-7.86159 c -4.087953,-0.58852 -13.129068,-1.85617 -20.091365,-2.817 l -12.658721,-1.74698 v -16.65014 -16.65017 h 20.207501 20.207498 v 19.51069 c 0,10.73089 -0.05225,19.49111 -0.116142,19.46716 -0.06387,-0.0239 -3.460823,-0.52505 -7.548778,-1.11356 z m -32.639818,-58.18683 0.122007,-16.60622 5.342211,-0.76467 c 2.938218,-0.42058 8.791424,-1.23078 13.007127,-1.80045 4.215703,-0.56968 10.85282,-1.5013 14.749151,-2.07025 l 7.084239,-1.03446 v 19.44114 19.44114 H 46.853999 26.640631 Z m 44.485552,16.49009 c -1.9e-5,-0.0639 -0.0158,-8.86265 -0.03525,-19.55286 -0.01937,-10.69019 0.04335,-19.51525 0.139318,-19.61124 0.159966,-0.15995 21.552794,-3.23164 41.936876,-6.02146 4.59895,-0.62943 8.9366,-1.24549 9.63921,-1.36902 l 1.27749,-0.22461 v 23.44766 23.44767 H 97.72702 c -14.563336,0 -26.478811,-0.0523 -26.478834,-0.11605 z"
       id="path911"
       inkscape:connector-curvature="0" />
  </g>
</svg>
