<?xml version="1.0" encoding="UTF-8" standalone="no"?>
<!-- Created with Inkscape (http://www.inkscape.org/) -->

<svg
   xmlns:dc="http://purl.org/dc/elements/1.1/"
   xmlns:cc="http://creativecommons.org/ns#"
   xmlns:rdf="http://www.w3.org/1999/02/22-rdf-syntax-ns#"
   xmlns:svg="http://www.w3.org/2000/svg"
   xmlns="http://www.w3.org/2000/svg"
   xmlns:sodipodi="http://sodipodi.sourceforge.net/DTD/sodipodi-0.dtd"
   xmlns:inkscape="http://www.inkscape.org/namespaces/inkscape"
   width="151mm"
   height="151mm"
   viewBox="0 0 151 151"
   version="1.1"
   id="svg8"
   inkscape:version="0.92.3 (2405546, 2018-03-11)"
   sodipodi:docname="yunohost.svg">
  <defs
     id="defs2" />
  <sodipodi:namedview
     id="base"
     pagecolor="#ffffff"
     bordercolor="#666666"
     borderopacity="1.0"
     inkscape:pageopacity="0.0"
     inkscape:pageshadow="2"
     inkscape:zoom="0.49497475"
     inkscape:cx="-43.025332"
     inkscape:cy="169.2545"
     inkscape:document-units="mm"
     inkscape:current-layer="layer1"
     showgrid="false"
     inkscape:window-width="1366"
     inkscape:window-height="703"
     inkscape:window-x="0"
     inkscape:window-y="0"
     inkscape:window-maximized="1" />
  <metadata
     id="metadata5">
    <rdf:RDF>
      <cc:Work
         rdf:about="">
        <dc:format>image/svg+xml</dc:format>
        <dc:type
           rdf:resource="http://purl.org/dc/dcmitype/StillImage" />
        <dc:title />
      </cc:Work>
    </rdf:RDF>
  </metadata>
  <g
     inkscape:label="Layer 1"
     inkscape:groupmode="layer"
     id="layer1"
     transform="translate(0,-146)">
    <path
       style="fill:#000000;stroke-width:0.26458335"
       d=""
       id="path72"
       inkscape:connector-curvature="0" />
    <path
       style="fill:#000000;fill-opacity:1;stroke-width:0.29804462"
       d="m 29.811985,281.19475 c -2.126207,-1.05953 -3.928342,-3.11891 -5.608085,-6.4086 -1.236479,-2.42158 -1.87193,-3.24226 -4.508226,-5.82235 -3.367239,-3.29545 -4.260956,-4.77258 -4.271488,-7.05995 -0.01014,-2.22405 1.121827,-3.23257 5.060207,-4.5079 l 3.129474,-1.01338 0.189516,-8.60013 c 0.198642,-9.01375 0.499229,-11.27267 1.719464,-12.92176 1.183163,-1.59899 5.261257,-0.54828 7.351948,1.89423 2.34428,2.73876 2.957777,5.43223 2.664174,11.69677 -0.243925,5.20477 -0.09586,6.37799 0.804692,6.37799 0.987946,0 3.049946,-2.33366 3.818568,-4.32165 0.66108,-1.70982 0.688599,-2.09678 0.627319,-8.82095 -0.05925,-6.50491 -0.01712,-7.15821 0.561825,-8.70557 1.044575,-2.79189 1.377558,-3.04835 3.869632,-2.98027 4.377532,0.11957 6.446898,1.52667 7.155435,4.86547 0.417684,1.96823 0.376781,2.28205 -1.106642,8.48826 -1.488885,6.2291 -1.48135,9.24366 0.03898,15.59436 1.319217,5.51054 1.7524,8.80942 1.615973,12.3064 -0.128553,3.29549 -0.493122,3.82358 -2.159021,3.12753 -1.673886,-0.69939 -4.2089,-2.83644 -7.278592,-6.13594 -1.527953,-1.64235 -3.014788,-2.98608 -3.304088,-2.98608 -0.289289,0 -1.156849,0.4915 -1.927905,1.09223 -0.771055,0.60072 -2.033679,1.25313 -2.805828,1.4498 l -1.403894,0.35757 v 6.0849 c 0,5.32181 -0.06624,6.18654 -0.528448,6.89544 -0.67783,1.03968 -1.696585,1.05442 -3.704998,0.0537 z m 59.480923,-11.4986 c -3.408244,-3.62391 -5.523249,-10.02669 -4.727399,-14.3113 0.369439,-1.98897 1.237761,-2.87598 2.202109,-2.24953 0.345284,0.2243 1.05953,1.05824 1.587215,1.85321 1.426019,2.14831 1.994015,2.63233 2.839882,2.42005 1.02041,-0.25612 1.838164,-2.16969 1.648039,-3.85649 -0.199908,-1.77357 -1.507016,-3.70067 -6.006783,-8.85594 -4.762808,-5.45664 -5.08217,-6.07711 -4.884512,-9.49017 0.175607,-3.03237 0.858041,-4.72217 2.762497,-6.84039 1.812114,-2.0155 3.631831,-2.8537 6.498919,-2.99353 2.127807,-0.10374 2.490339,-0.0332 4.230333,0.82338 2.903758,1.42952 4.897252,4.37022 4.910592,7.24385 0.007,1.57529 0.0911,1.52263 -2.9739,1.86826 -2.91674,0.32891 -3.505859,1.20837 -2.497538,3.72841 0.929419,2.32285 1.947945,2.20958 3.23945,-0.36024 0.95429,-1.89884 2.733978,-3.13337 4.840538,-3.35779 2.78315,-0.29648 3.44101,-0.54885 4.02143,-1.54267 0.29588,-0.50661 1.01428,-3.25263 1.59645,-6.10227 1.14489,-5.60401 1.90515,-7.4994 3.07488,-7.66588 2.88536,-0.41063 6.42413,2.94988 7.02779,6.67381 0.45651,2.81605 -0.0688,2.55041 4.60267,2.32741 3.49542,-0.16685 4.38065,-0.11704 5.72306,0.32204 2.07839,0.6798 3.66274,1.96647 4.74507,3.85356 1.06914,1.86404 1.10191,2.75947 0.15229,4.15882 -1.66753,2.45725 -4.3987,4.14516 -9.70202,5.99607 -1.72121,0.60072 -3.90924,1.37261 -4.8623,1.71531 l -1.73282,0.6231 0.16468,1.81931 c 0.0905,1.00062 0.38365,4.22619 0.65127,7.16793 0.58185,6.396 0.46654,8.18396 -0.67678,10.49365 -1.48498,2.99994 -3.32555,3.25187 -6.02518,0.82467 -2.80151,-2.5188 -3.8976,-6.04571 -3.90616,-12.56884 -0.006,-4.44002 0.20056,-4.12928 -2.49695,-3.75955 l -1.3828,0.18954 v 5.71283 c 0,5.59655 -0.0163,5.74588 -0.8001,7.33609 -0.45756,0.92833 -1.71999,2.54919 -2.94883,3.78608 -2.666486,2.684 -4.67232,3.68606 -7.77728,3.88532 -2.152395,0.13814 -2.178203,0.13096 -3.117812,-0.86811 z m -23.830811,-0.33537 c -2.571129,-0.89722 -5.780468,-3.09656 -8.612566,-5.90214 -3.2862,-3.25543 -3.686343,-4.22472 -3.829303,-9.27601 -0.245346,-8.66873 2.040224,-15.8942 6.072989,-19.19875 1.346918,-1.1037 3.453345,-1.91146 4.984553,-1.91146 3.653427,0 12.293021,4.45155 14.658437,7.55277 1.867375,2.44827 1.799542,13.68897 -0.120112,19.90408 -1.171914,3.79421 -3.802709,6.9234 -7.154966,8.51041 -2.265553,1.07255 -3.6355,1.14587 -5.999032,0.3211 z m 1.445427,-13.68469 c 2.030848,-1.25514 2.997998,-5.04943 1.912549,-7.50327 -0.493628,-1.11592 -0.760894,-1.39037 -1.354023,-1.39037 -0.944871,0 -2.442194,1.25755 -3.150539,2.64602 -0.635542,1.24577 -1.069739,4.60378 -0.77109,5.96351 0.181451,0.82614 0.319928,0.92791 1.262613,0.92791 0.582338,0 1.527558,-0.2897 2.10049,-0.6438 z M 33.300317,221.71073 c -2.53748,-1.00885 -5.343928,-5.78638 -6.426858,-10.94069 -0.605623,-2.88252 -0.616888,-7.27076 -0.02625,-10.23833 0.726413,-3.6499 0.508509,-4.08886 -4.416058,-8.8956 -2.830915,-2.76317 -3.182113,-3.45178 -3.872143,-7.59203 -0.737802,-4.42685 -1.651132,-11.98706 -1.651132,-13.66736 0,-3.47727 1.570286,-6.1526 3.611276,-6.1526 1.211427,0 2.88502,0.91786 4.165644,2.28458 2.351232,2.50932 2.736968,3.49082 4.256054,10.82937 1.295731,6.25958 1.411577,6.55698 2.553894,6.55698 1.156263,0 2.573123,-1.40426 4.162253,-4.12522 1.297939,-2.22239 2.986784,-3.92198 3.897162,-3.92198 0.867695,0 4.094722,2.84149 4.802402,4.22865 0.512295,1.00418 0.607369,1.64051 0.521735,3.4919 -0.134692,2.91215 -0.883736,4.46046 -4.586628,9.48072 l -2.810863,3.81087 -0.0046,4.66236 c -0.0046,5.33306 -0.558817,11.19857 -1.671892,17.69098 -0.257713,1.50323 -0.919163,2.83716 -1.394645,2.81253 -0.200692,-0.0101 -0.700201,-0.15219 -1.110011,-0.31513 z m 21.332156,-5.6741 c -3.79801,-2.0025 -6.44237,-6.97974 -7.977577,-15.01548 -1.285355,-6.72791 -0.741147,-23.60268 0.811396,-25.15964 1.010204,-1.01308 5.219589,2.16613 6.605898,4.98918 l 0.836358,1.70316 0.172462,8.04721 c 0.09484,4.42596 0.276863,8.2819 0.404447,8.56877 0.482816,1.08558 1.401618,0.44432 2.502673,-1.74667 1.021797,-2.03328 2.373682,-7.02884 3.489865,-12.89587 1.964041,-10.32361 1.923229,-10.16966 2.696055,-10.16966 1.045846,0 4.095149,2.98335 4.855231,4.75019 1.70047,3.95284 1.319179,14.98308 -0.855404,24.74571 -1.46879,6.59398 -3.691964,10.32626 -7.214113,12.11106 -1.850742,0.93784 -4.625255,0.96943 -6.327291,0.0721 z m 20.858812,-2.36357 c -2.848603,-1.90526 -3.45617,-2.78846 -3.115393,-4.52876 0.727188,-3.71362 1.192108,-9.93868 1.462425,-19.58119 0.33328,-11.88856 0.577897,-14.53601 1.399099,-15.14233 1.098912,-0.81136 3.947228,0.28053 5.794888,2.22143 1.677303,1.76197 3.502989,4.54775 3.860542,5.89076 0.553796,2.08011 3.636504,7.91084 3.924153,7.42224 0.0804,-0.13656 0.236779,-1.58949 0.347511,-3.22873 0.484102,-7.16662 1.103621,-13.91268 1.509522,-16.43749 0.411163,-2.55755 1.699048,-6.78672 2.243859,-7.36842 0.134125,-0.14321 1.109521,0.59445 2.167541,1.63924 1.413224,1.39557 2.111267,2.37414 2.630648,3.6879 l 0.706979,1.78826 0.02047,14.30615 c 0.01193,8.37511 0.176877,16.46787 0.39778,19.52043 0.460456,6.36298 0.295343,8.1261 -0.870139,9.29158 -0.712126,0.71212 -1.087541,0.84343 -2.411503,0.84343 -2.331855,0 -3.652155,-0.8104 -7.283655,-4.47074 -1.788933,-1.80313 -3.486645,-3.27842 -3.772694,-3.27842 -0.655775,0 -1.147501,0.96397 -2.161925,4.23822 -1.111564,3.58778 -1.786629,4.52958 -3.3283,4.64344 -1.036951,0.0765 -1.540155,-0.1316 -3.521779,-1.457 z m 36.194815,-5.22387 c -2.81928,-0.5858 -5.33044,-1.97828 -7.48797,-4.15219 -2.22745,-2.24433 -3.50023,-4.54083 -3.82523,-6.90185 -0.875195,-6.35825 3.23149,-22.30676 6.78647,-26.35566 1.00976,-1.15006 4.17054,-2.80984 6.97842,-3.6645 2.07368,-0.63118 3.01346,-0.399 5.03495,1.24399 1.99697,1.62307 3.46468,3.75557 4.15974,6.04392 0.57628,1.89732 0.58402,2.1012 0.14414,3.79878 -0.63302,2.44293 -0.59913,2.99934 0.43178,7.09075 0.49314,1.95712 0.98109,4.32409 1.08435,5.25994 0.43257,3.92092 -2.20405,11.66174 -5.14072,15.09258 -1.1044,1.29025 -3.49447,2.5848 -5.18549,2.80867 -0.57374,0.0759 -1.91494,-0.0431 -2.98044,-0.26443 z m 1.70145,-15.68731 c 1.9676,-2.15187 3.68304,-9.00002 2.44993,-9.78039 -1.48177,-0.93773 -3.95076,1.11926 -4.99566,4.16202 -0.58768,1.71134 -0.4464,4.59314 0.2698,5.50366 0.75669,0.96196 1.46842,0.99783 2.27593,0.11471 z"
       id="path983"
       inkscape:connector-curvature="0" />
  </g>
</svg>
